<svg width="28" height="28" viewBox="0 0 28 28" fill="none" xmlns="http://www.w3.org/2000/svg">
<path d="M18 16C18 16.552 17.552 17 17 17H16C15.448 17 15 16.552 15 16C15 15.448 15.448 15 16 15H17C17.552 15 18 15.448 18 16ZM21 15H20C19.448 15 19 15.448 19 16C19 16.552 19.448 17 20 17H21C21.552 17 22 16.552 22 16C22 15.448 21.552 15 21 15ZM17 19H16C15.448 19 15 19.448 15 20C15 20.552 15.448 21 16 21H17C17.552 21 18 20.552 18 20C18 19.448 17.552 19 17 19ZM21 19H20C19.448 19 19 19.448 19 20C19 20.552 19.448 21 20 21H21C21.552 21 22 20.552 22 20C22 19.448 21.552 19 21 19ZM17 7H16C15.448 7 15 7.448 15 8C15 8.552 15.448 9 16 9H17C17.552 9 18 8.552 18 8C18 7.448 17.552 7 17 7ZM21 7H20C19.448 7 19 7.448 19 8C19 8.552 19.448 9 20 9H21C21.552 9 22 8.552 22 8C22 7.448 21.552 7 21 7ZM17 11H16C15.448 11 15 11.448 15 12C15 12.552 15.448 13 16 13H17C17.552 13 18 12.552 18 12C18 11.448 17.552 11 17 11ZM21 11H20C19.448 11 19 11.448 19 12C19 12.552 19.448 13 20 13H21C21.552 13 22 12.552 22 12C22 11.448 21.552 11 21 11ZM26 7V21C26 23.757 23.757 26 21 26H7C4.243 26 2 23.757 2 21V11.258C2 9.907 2.558 8.594 3.531 7.657L5.419 5.839C6.586 4.714 8.414 4.715 9.581 5.839L11 7.206V7C11 4.243 13.243 2 16 2H21C23.757 2 26 4.243 26 7ZM11 11.258C11 10.447 10.665 9.66 10.081 9.097L8.193 7.279C7.999 7.091 7.749 6.998 7.5 6.998C7.251 6.998 7.001 7.091 6.807 7.279L4.919 9.097C4.335 9.659 4 10.447 4 11.258V21C4 22.654 5.346 24 7 24H11V11.258ZM24 7C24 5.346 22.654 4 21 4H16C14.346 4 13 5.346 13 7V24H21C22.654 24 24 22.654 24 21V7ZM8 15H7C6.448 15 6 15.448 6 16C6 16.552 6.448 17 7 17H8C8.552 17 9 16.552 9 16C9 15.448 8.552 15 8 15ZM8 11H7C6.448 11 6 11.448 6 12C6 12.552 6.448 13 7 13H8C8.552 13 9 12.552 9 12C9 11.448 8.552 11 8 11ZM8 19H7C6.448 19 6 19.448 6 20C6 20.552 6.448 21 7 21H8C8.552 21 9 20.552 9 20C9 19.448 8.552 19 8 19Z" fill="#275A8A"/>
</svg>
