<svg width="28" height="28" viewBox="0 0 28 28" fill="none" xmlns="http://www.w3.org/2000/svg">
<g clip-path="url(#clip0_3780_29728)">
<path d="M20.656 2.93007L8.46402 15.1221C7.99836 15.5852 7.6292 16.1361 7.3779 16.7429C7.1266 17.3497 6.99817 18.0003 7.00002 18.6571V20.0001C7.00002 20.2653 7.10538 20.5196 7.29291 20.7072C7.48045 20.8947 7.7348 21.0001 8.00002 21.0001H9.34302C9.99978 21.0019 10.6504 20.8735 11.2572 20.6222C11.864 20.3709 12.4149 20.0017 12.878 19.5361L25.07 7.34407C25.6544 6.75824 25.9826 5.96455 25.9826 5.13707C25.9826 4.3096 25.6544 3.5159 25.07 2.93007C24.4757 2.36197 23.6852 2.04492 22.863 2.04492C22.0409 2.04492 21.2503 2.36197 20.656 2.93007ZM23.656 5.93007L11.464 18.1221C10.9001 18.6825 10.138 18.998 9.34302 19.0001H9.00002V18.6571C9.0021 17.8621 9.31759 17.0999 9.87802 16.5361L22.07 4.34407C22.2836 4.14003 22.5676 4.02617 22.863 4.02617C23.1584 4.02617 23.4424 4.14003 23.656 4.34407C23.866 4.55459 23.9839 4.83976 23.9839 5.13707C23.9839 5.43438 23.866 5.71956 23.656 5.93007Z" fill="#275A8A"/>
<path d="M25 10.979C24.7348 10.979 24.4804 11.0844 24.2929 11.2719C24.1054 11.4594 24 11.7138 24 11.979V17H20C19.2044 17 18.4413 17.3161 17.8787 17.8787C17.3161 18.4413 17 19.2044 17 20V24H7C6.20435 24 5.44129 23.6839 4.87868 23.1213C4.31607 22.5587 4 21.7957 4 21V7C4 6.20435 4.31607 5.44129 4.87868 4.87868C5.44129 4.31607 6.20435 4 7 4H16.042C16.3072 4 16.5616 3.89464 16.7491 3.70711C16.9366 3.51957 17.042 3.26522 17.042 3C17.042 2.73478 16.9366 2.48043 16.7491 2.29289C16.5616 2.10536 16.3072 2 16.042 2H7C5.67441 2.00159 4.40356 2.52888 3.46622 3.46622C2.52888 4.40356 2.00159 5.67441 2 7L2 21C2.00159 22.3256 2.52888 23.5964 3.46622 24.5338C4.40356 25.4711 5.67441 25.9984 7 26H18.343C18.9999 26.0019 19.6507 25.8735 20.2576 25.6222C20.8646 25.3709 21.4157 25.0017 21.879 24.536L24.535 21.878C25.0008 21.4149 25.37 20.864 25.6215 20.2572C25.873 19.6504 26.0016 18.9998 26 18.343V11.979C26 11.7138 25.8946 11.4594 25.7071 11.2719C25.5196 11.0844 25.2652 10.979 25 10.979ZM20.465 23.122C20.063 23.523 19.5547 23.8006 19 23.922V20C19 19.7348 19.1054 19.4804 19.2929 19.2929C19.4804 19.1054 19.7348 19 20 19H23.925C23.8013 19.5535 23.524 20.0609 23.125 20.464L20.465 23.122Z" fill="#275A8A"/>
</g>
<defs>
<clipPath id="clip0_3780_29728">
<rect width="24" height="24" fill="white" transform="translate(2 2)"/>
</clipPath>
</defs>
</svg>
