<svg width="28" height="28" viewBox="0 0 28 28" fill="none" xmlns="http://www.w3.org/2000/svg">
<path d="M21 4H7C5.67441 4.00144 4.40356 4.4808 3.46622 5.33293C2.52888 6.18505 2.00159 7.34037 2 8.54545L2 19.4545C2.00159 20.6596 2.52888 21.8149 3.46622 22.6671C4.40356 23.5192 5.67441 23.9986 7 24H21C22.3256 23.9986 23.5964 23.5192 24.5338 22.6671C25.4711 21.8149 25.9984 20.6596 26 19.4545V8.54545C25.9984 7.34037 25.4711 6.18505 24.5338 5.33293C23.5964 4.4808 22.3256 4.00144 21 4ZM7 5.81818H21C21.5988 5.81925 22.1835 5.9832 22.679 6.28891C23.1744 6.59463 23.5579 7.02813 23.78 7.53364L16.122 14.4964C15.5584 15.0066 14.7954 15.2932 14 15.2932C13.2046 15.2932 12.4416 15.0066 11.878 14.4964L4.22 7.53364C4.44215 7.02813 4.82561 6.59463 5.32105 6.28891C5.81648 5.9832 6.40121 5.81925 7 5.81818ZM21 22.1818H7C6.20435 22.1818 5.44129 21.8945 4.87868 21.383C4.31607 20.8716 4 20.1779 4 19.4545V9.90909L10.464 15.7818C11.4026 16.633 12.6743 17.1109 14 17.1109C15.3257 17.1109 16.5974 16.633 17.536 15.7818L24 9.90909V19.4545C24 20.1779 23.6839 20.8716 23.1213 21.383C22.5587 21.8945 21.7956 22.1818 21 22.1818Z" fill="#275A8A"/>
</svg>
