<svg width="46" height="46" viewBox="0 0 46 46" fill="none" xmlns="http://www.w3.org/2000/svg">
<circle cx="23" cy="23" r="23" fill="#E6716F"/>
<path d="M15.8277 35C15.5503 34.9988 15.2766 34.9268 15.0268 34.7893C14.7206 34.6252 14.4615 34.3654 14.2797 34.04C14.0979 33.7146 14.0009 33.337 14 32.9512V13.0489C14.0013 12.7773 14.0498 12.5087 14.1425 12.2586C14.2352 12.0084 14.3703 11.7816 14.5402 11.5912C14.71 11.4008 14.9112 11.2505 15.1322 11.1491C15.3532 11.0477 15.5895 10.997 15.8277 11.0001H30.2031C30.6788 11.0032 31.1343 11.22 31.4707 11.6036C31.8071 11.9872 31.9973 12.5065 32 13.0489V32.9512C31.9933 33.322 31.8985 33.6837 31.7257 33.9979C31.5529 34.312 31.3085 34.5668 31.0187 34.735C30.7288 34.9032 30.4044 34.9786 30.0799 34.9531C29.7554 34.9276 29.4431 34.8022 29.1763 34.5902L23.2208 29.4976C23.1771 29.4577 23.1227 29.436 23.0667 29.436C23.0108 29.436 22.9564 29.4577 22.9127 29.4976L16.9059 34.5902C16.5941 34.8547 16.2163 34.9983 15.8277 35ZM15.8277 12.7562C15.7596 12.7562 15.6943 12.7871 15.6462 12.8419C15.5981 12.8968 15.571 12.9713 15.571 13.0489V32.9512C15.5707 33.0054 15.584 33.0585 15.6095 33.1042C15.635 33.1499 15.6716 33.1862 15.7148 33.2088C15.7541 33.2395 15.8006 33.2559 15.8483 33.2559C15.8959 33.2559 15.9424 33.2395 15.9817 33.2088L21.9886 28.0927C22.3009 27.8303 22.6787 27.6887 23.0667 27.6887C23.4547 27.6887 23.8325 27.8303 24.1449 28.0927L30.1004 33.1854C30.1397 33.2161 30.1862 33.2325 30.2339 33.2325C30.2815 33.2325 30.3281 33.2161 30.3674 33.1854C30.4106 33.1628 30.4471 33.1265 30.4726 33.0808C30.4981 33.0351 30.5115 32.982 30.5111 32.9278V13.0489C30.5119 13.005 30.504 12.9615 30.488 12.9215C30.472 12.8816 30.4484 12.8462 30.4188 12.8181C30.3892 12.79 30.3545 12.7699 30.3171 12.7591C30.2798 12.7484 30.2408 12.7474 30.2031 12.7562H15.8277Z" fill="white"/>
</svg>
