<svg width="46" height="46" viewBox="0 0 46 46" fill="none" xmlns="http://www.w3.org/2000/svg">
<circle cx="23" cy="23" r="23" fill="#A0B2C3"/>
<path d="M23 26.75L26.75 23M26.75 23L23 19.25M26.75 23H13M13 17.06V17C13 15.6 13 14.9 13.2725 14.365C13.5125 13.8938 13.8938 13.5125 14.365 13.2725C14.9 13 15.6 13 17 13H29C30.4 13 31.1 13 31.6337 13.2725C32.105 13.5125 32.4875 13.8938 32.7275 14.365C33 14.8987 33 15.5987 33 16.9963V29.005C33 30.4025 33 31.1013 32.7275 31.635C32.4874 32.1055 32.1045 32.4879 31.6337 32.7275C31.1 33 30.4012 33 29.0037 33H16.9963C15.5987 33 14.8987 33 14.365 32.7275C13.8946 32.4878 13.5122 32.1054 13.2725 31.635C13 31.1 13 30.4 13 29V28.9375" stroke="white" stroke-width="2" stroke-linecap="round" stroke-linejoin="round"/>
</svg>
