<svg width="46" height="46" viewBox="0 0 46 46" fill="none" xmlns="http://www.w3.org/2000/svg">
<circle cx="23" cy="23" r="23" fill="#E6716F"/>
<path d="M23.0005 10C16.3841 10 11 15.2496 11 21.7028V26.3678C11.0013 27.4452 11.4407 28.4781 12.2219 29.2399C13.0031 30.0017 14.0623 30.4303 15.167 30.4315H15.3819C15.9753 30.431 16.5443 30.201 16.9641 29.792C17.3839 29.383 17.6202 28.8283 17.6212 28.2496V23.3105C17.6205 22.7326 17.3847 22.1786 16.9655 21.7701C16.5464 21.3616 15.9783 21.1319 15.3857 21.1314H15.1622C14.2502 21.1314 13.4139 21.4269 12.7272 21.9142V21.7037C12.7272 16.1783 17.3354 11.6835 23.0005 11.6835C28.6655 11.6835 33.2737 16.1783 33.2737 21.7028V21.9132C32.5678 21.407 31.715 21.1328 30.8387 21.1304H30.6153C30.0227 21.1309 29.4545 21.3606 29.0354 21.7692C28.6163 22.1777 28.3805 22.7317 28.3797 23.3096V28.2524C28.3805 28.8303 28.6163 29.3842 29.0354 29.7928C29.4545 30.2013 30.0227 30.431 30.6153 30.4315H30.7275C30.5645 31.0686 30.1882 31.6344 29.6582 32.0393C29.1282 32.4442 28.4747 32.665 27.8014 32.6668H27.3219C27.1448 32.1861 26.8203 31.7702 26.3923 31.4757C25.9644 31.1812 25.4538 31.0223 24.9301 31.0207H24.1686C22.7607 31.0207 21.6156 32.1374 21.6156 33.5104C21.6156 34.8833 22.7607 36 24.1686 36H24.9301C25.4545 35.9984 25.9657 35.8392 26.3939 35.5439C26.8221 35.2487 27.1465 34.8318 27.3229 34.3502H27.8014C30.294 34.3502 32.3224 32.4629 32.517 30.0799C33.2546 29.7627 33.8818 29.2436 34.3226 28.5855C34.7633 27.9273 34.9987 27.1586 35 26.3725V21.7028C35.001 15.2496 29.6169 10 23.0005 10ZM15.1622 22.8139H15.3857C15.5205 22.8139 15.6498 22.8661 15.7451 22.9591C15.8404 23.052 15.894 23.1781 15.894 23.3096V28.2486C15.8937 28.381 15.8397 28.5079 15.7437 28.6015C15.6477 28.6951 15.5176 28.7478 15.3819 28.7481H15.167C14.52 28.7473 13.8997 28.4963 13.4423 28.05C12.9849 27.6038 12.7277 26.9988 12.7272 26.3678V25.1894C12.7277 24.5597 12.9844 23.9559 13.4409 23.5105C13.8974 23.0652 14.5165 22.8146 15.1622 22.8139ZM24.931 34.3165H24.1696C23.9503 34.3165 23.74 34.2316 23.585 34.0804C23.43 33.9292 23.3429 33.7242 23.3429 33.5104C23.3429 33.2965 23.43 33.0915 23.585 32.9403C23.74 32.7891 23.9503 32.7042 24.1696 32.7042H24.931C25.1503 32.7042 25.3606 32.7891 25.5156 32.9403C25.6706 33.0915 25.7577 33.2965 25.7577 33.5104C25.7577 33.7242 25.6706 33.9292 25.5156 34.0804C25.3606 34.2316 25.1503 34.3165 24.931 34.3165ZM33.2737 26.3725C33.2737 27.6819 32.1814 28.7481 30.8387 28.7481H30.6153C30.4805 28.7481 30.3512 28.6958 30.2558 28.6029C30.1605 28.5099 30.107 28.3838 30.107 28.2524V23.3096C30.107 23.1781 30.1605 23.052 30.2558 22.9591C30.3512 22.8661 30.4805 22.8139 30.6153 22.8139H30.8378C32.1804 22.8139 33.2728 23.8801 33.2728 25.1894L33.2737 26.3725Z" fill="white"/>
</svg>
