<svg width="46" height="46" viewBox="0 0 46 46" fill="none" xmlns="http://www.w3.org/2000/svg">
<circle cx="23" cy="23" r="23" fill="#E6716F"/>
<g clip-path="url(#clip0_3780_29668)">
<path d="M30.1681 34.5564C30.7842 33.1979 30.1944 31.5112 28.8286 30.7227C28.7899 30.7006 28.7559 30.6713 28.7285 30.6364C28.7011 30.6014 28.6809 30.5616 28.669 30.5191C28.6571 30.4767 28.6539 30.4325 28.6594 30.3891C28.6649 30.3458 28.679 30.3041 28.7011 30.2665L31.1711 25.9883C33.0057 22.8106 32.5273 18.8397 30.2635 16.1527C30.3913 16.0085 30.5062 15.8522 30.6027 15.6851C31.3932 14.316 30.8992 12.5491 29.5 11.7412C28.1009 10.9334 26.3236 11.3891 25.5332 12.7583C25.4388 12.9217 25.363 13.0958 25.3025 13.2691C24.122 13.0427 22.9003 13.0589 21.7011 13.3446C19.4421 13.8805 17.5654 15.2713 16.4163 17.2615L13.8562 21.6958C13.766 21.852 13.5606 21.9078 13.3973 21.8135C12.0279 21.0228 10.2759 21.3575 9.40747 22.5703C8.92386 23.245 8.75419 24.0961 8.94163 24.9113C9.12745 25.7208 9.65278 26.4308 10.3838 26.8529L14.8596 29.437C14.1037 31.1748 14.7855 33.268 16.5 34.2579C18.2146 35.2478 20.3683 34.7916 21.4953 33.2681L25.9711 35.8522C26.7022 36.2743 27.5797 36.3742 28.3736 36.1304C29.1697 35.8829 29.8256 35.3126 30.1681 34.5564ZM28.6613 13.1939C29.2403 13.5281 29.4453 14.2615 29.1182 14.828C29.091 14.8752 29.0584 14.9145 29.0237 14.9574C28.7923 14.7754 28.5509 14.6021 28.299 14.447C27.8658 14.1774 27.4147 13.9559 26.9507 13.7654C26.9705 13.7139 26.9883 13.666 27.0155 13.6189C27.3448 13.0488 28.0824 12.8597 28.6613 13.1939ZM17.3388 32.8051C16.4444 32.2888 16.0554 31.2313 16.359 30.3026L19.9959 32.4024C19.3435 33.1297 18.2332 33.3215 17.3388 32.8051ZM27.8391 34.5192C27.4918 34.6237 27.1289 34.5836 26.8098 34.3994L11.2227 25.4002C10.9035 25.2159 10.6875 24.9217 10.6042 24.5686C10.5211 24.2155 10.5949 23.8562 10.8086 23.5632C11.1772 23.0448 11.95 22.9148 12.5623 23.2683C13.5421 23.834 14.7908 23.5138 15.3444 22.555L17.9045 18.1207C18.8229 16.53 20.3262 15.4175 22.1327 14.9884C23.8562 14.5744 25.6423 14.8405 27.1936 15.7361C27.2678 15.779 27.3383 15.8197 27.4105 15.8662C30.4984 17.7942 31.5212 21.9536 29.6866 25.1313L27.2166 29.4095C26.663 30.3683 27.0101 31.6097 27.9899 32.1754C28.6022 32.5289 28.876 33.2633 28.6114 33.8416C28.4607 34.171 28.1886 34.411 27.8391 34.5192ZM14.8557 14.9078C15.1972 15.105 15.6394 15.0504 15.9086 14.7555C17.1891 13.369 18.8405 12.3856 20.6949 11.9164C21.1479 11.8002 21.4142 11.339 21.2882 10.8886C21.1623 10.4382 20.691 10.1661 20.238 10.2823C18.0701 10.8318 16.1329 11.9844 14.6358 13.609C14.3203 13.9498 14.3483 14.4841 14.7009 14.799C14.754 14.8442 14.8038 14.8779 14.8557 14.9078ZM34.0798 26.0069C34.1318 26.0369 34.1917 26.0618 34.2499 26.0809C34.701 26.2251 35.1757 25.9859 35.313 25.5422C35.9714 23.4334 35.9989 21.1831 35.393 19.0271C35.2671 18.5767 34.7957 18.3045 34.3427 18.4207C33.8898 18.5369 33.6234 18.9981 33.7494 19.4485C34.2665 21.2869 34.2442 23.211 33.6837 25.0131C33.5646 25.3995 33.7384 25.8098 34.0798 26.0069Z" fill="white"/>
</g>
<defs>
<clipPath id="clip0_3780_29668">
<rect width="28" height="28" fill="white" transform="translate(9 9)"/>
</clipPath>
</defs>
</svg>
