<svg width="46" height="46" viewBox="0 0 46 46" fill="none" xmlns="http://www.w3.org/2000/svg">
<circle cx="23" cy="23" r="23" fill="#E6716F"/>
<path d="M13.4135 35.3938L11.4631 29.6984L13.2735 26.8748C14.0777 25.6235 15.2219 24.6274 16.5721 24.0033C17.9222 23.3792 19.4223 23.153 20.8965 23.3512H24.4236C25.4019 23.3512 26.2541 23.8963 26.6951 24.6987L30.6414 22.365C31.0107 22.1473 31.4208 22.0077 31.8463 21.9547C32.2717 21.9017 32.7035 21.9365 33.115 22.057C33.6878 22.2251 34.2004 22.5538 34.5922 23.0041C34.984 23.4543 35.2387 24.0074 35.326 24.5979C35.4134 25.1884 35.3298 25.7915 35.0851 26.336C34.8404 26.8805 34.4449 27.3434 33.9454 27.6702L29.8661 30.3442C27.6046 31.8286 24.958 32.6185 22.2528 32.6165H21.649C19.6584 32.6165 17.6783 33.1127 15.923 34.0515L13.4126 35.3947L13.4135 35.3938ZM13.3925 29.932L14.4023 32.8799L15.0988 32.5072C17.1138 31.4293 19.3638 30.8655 21.649 30.8657H22.2545C24.6196 30.8657 26.9331 30.1753 28.9106 28.8785L32.9129 26.2553C33.4825 25.8817 33.7678 25.151 33.5026 24.5228C33.4242 24.334 33.3044 24.1652 33.1521 24.0289C32.9997 23.8926 32.8187 23.7923 32.6224 23.7353C32.4413 23.6811 32.251 23.6652 32.0634 23.6885C31.8759 23.7119 31.6953 23.774 31.533 23.8709L26.9305 26.593C26.7855 27.1474 26.461 27.6382 26.0076 27.9887C25.5542 28.3391 24.9976 28.5296 24.4245 28.5303H21.8424C21.6103 28.5303 21.3878 28.4381 21.2237 28.274C21.0596 28.1099 20.9674 27.8873 20.9674 27.6553C20.9674 27.4232 21.0596 27.2007 21.2237 27.0366C21.3878 26.8725 21.6103 26.7803 21.8424 26.7803H24.4245C24.6404 26.7704 24.8442 26.6777 24.9935 26.5214C25.1429 26.3651 25.2262 26.1573 25.2262 25.9412C25.2262 25.725 25.1429 25.5172 24.9935 25.3609C24.8442 25.2046 24.6404 25.1119 24.4245 25.102L20.7128 25.0933C19.5618 24.9297 18.388 25.0997 17.3308 25.5831C16.2735 26.0666 15.3771 26.8431 14.7479 27.8207L13.3934 29.9329L13.3925 29.932Z" fill="white"/>
<path d="M11.3807 26.7697L11.3798 26.77C10.922 26.9245 10.6761 27.421 10.8306 27.8789L13.4695 35.6977C13.624 36.1555 14.1205 36.4014 14.5784 36.2469L14.5792 36.2466C15.0371 36.0921 15.283 35.5956 15.1284 35.1378L12.4895 27.319C12.335 26.8611 11.8385 26.6152 11.3807 26.7697Z" fill="white"/>
<path d="M16.4375 25.6424H14.6875V14.1589C14.6887 13.2883 15.035 12.4537 15.6506 11.8381C16.2662 11.2225 17.1008 10.8762 17.9714 10.875H28.0286C28.8992 10.8762 29.7338 11.2225 30.3494 11.8381C30.965 12.4537 31.3113 13.2883 31.3125 14.1589V24H29.5625V14.1589C29.5625 13.3127 28.8748 12.625 28.0286 12.625H17.9714C17.1253 12.625 16.4375 13.3127 16.4375 14.1589V25.6424Z" fill="white"/>
<path d="M22.9999 19.625C22.03 19.6238 21.0878 19.3009 20.3211 18.7068C19.5544 18.1127 19.0064 17.281 18.7632 16.342C18.7304 16.2126 18.7276 16.0775 18.755 15.9469C18.7823 15.8163 18.8392 15.6937 18.9211 15.5884C19.003 15.483 19.1079 15.3978 19.2278 15.3392C19.3477 15.2805 19.4793 15.25 19.6128 15.25H19.6154C20.0293 15.25 20.36 15.5475 20.4694 15.9474C20.7757 17.0577 21.7942 17.875 23.0008 17.875C24.2074 17.875 25.2259 17.0569 25.5322 15.9474C25.6424 15.5484 25.9723 15.25 26.3862 15.25H26.3888C26.9584 15.25 27.3802 15.7899 27.2384 16.342C26.9949 17.2808 26.4469 18.1124 25.6802 18.7064C24.9136 19.3005 23.9715 19.6235 23.0017 19.625H22.9999Z" fill="white"/>
</svg>
