<svg width="46" height="46" viewBox="0 0 46 46" fill="none" xmlns="http://www.w3.org/2000/svg">
<circle cx="23" cy="23" r="23" fill="#E6716F"/>
<path d="M31.7972 16.8309L26.2588 11.206C26.1289 11.0742 25.9529 11.0001 25.7692 11H16.0769C14.9317 11 14 11.9463 14 13.1094V32.8906C14 34.0537 14.9317 35 16.0769 35H29.9231C31.0683 35 32 34.0537 32 32.8906V17.3281C32 17.1364 31.9208 16.9564 31.7972 16.8309ZM26.4615 13.4006L29.6363 16.625H27.1538C26.7721 16.625 26.4615 16.3096 26.4615 15.9219V13.4006ZM29.9231 33.5938H16.0769C15.6952 33.5938 15.3846 33.2783 15.3846 32.8906V13.1094C15.3846 12.7217 15.6952 12.4062 16.0769 12.4062H25.0769V15.9219C25.0769 17.085 26.0086 18.0312 27.1538 18.0312H30.6154V32.8906C30.6154 33.2783 30.3048 33.5938 29.9231 33.5938Z" fill="white"/>
<path d="M27.6152 20.7656H18.3845C17.9596 20.7656 17.6152 21.1067 17.6152 21.5273C17.6152 21.948 17.9596 22.2891 18.3845 22.2891H27.6152C28.0401 22.2891 28.3845 21.948 28.3845 21.5273C28.3845 21.1067 28.0401 20.7656 27.6152 20.7656ZM27.6152 23.8125H18.3845C17.9596 23.8125 17.6152 24.1535 17.6152 24.5742C17.6152 24.9949 17.9596 25.3359 18.3845 25.3359H27.6152C28.0401 25.3359 28.3845 24.9949 28.3845 24.5742C28.3845 24.1535 28.0401 23.8125 27.6152 23.8125ZM27.6152 26.8594H18.3845C17.9596 26.8594 17.6152 27.2004 17.6152 27.6211C17.6152 28.0418 17.9596 28.3828 18.3845 28.3828H27.6152C28.0401 28.3828 28.3845 28.0418 28.3845 27.6211C28.3845 27.2004 28.0401 26.8594 27.6152 26.8594ZM24.5383 29.9062H18.3845C17.9596 29.9062 17.6152 30.2473 17.6152 30.668C17.6152 31.0886 17.9596 31.4297 18.3845 31.4297H24.5383C24.9631 31.4297 25.3075 31.0886 25.3075 30.668C25.3075 30.2473 24.9631 29.9062 24.5383 29.9062Z" fill="white"/>
</svg>
